<?xml version="1.0" encoding="utf-8"?>
<!-- Generator: Adobe Illustrator 21.1.0, SVG Export Plug-In . SVG Version: 6.00 Build 0)  -->
<svg version="1.1" id="Capa_1" xmlns="http://www.w3.org/2000/svg" xmlns:xlink="http://www.w3.org/1999/xlink" x="0px" y="0px"
	 viewBox="0 0 73.4 70" style="enable-background:new 0 0 73.4 70;" xml:space="preserve">
<style type="text/css">
	.st0{fill:#FFFFFF;}
</style>
<g transform="translate(9956 14486)">
	<path class="st0" d="M-9903.4-14482.2l20.8,6.8v-1.2l-20.6-6.7c-0.2-0.2-0.5-0.1-0.7,0.1l-3.3,3.3v0.1c0,0,0-0.1,0-0.1
		c0-0.2-0.1-0.3-0.3-0.4l-5.6-2.8h0l-5-2.4l-0.7-0.3c-0.3-0.1-0.6-0.1-0.8,0l-0.7,0.3l-7.2,3.5l-3.4,1.7c0,0-0.1,0-0.1,0
		c-0.2,0.1-0.3,0.3-0.3,0.5v-0.1l-3.2-3.2c-0.1-0.1-0.1-0.1-0.2-0.1c-0.1-0.1-0.3-0.1-0.4,0l-20.9,6.8v1.2l20.9-6.8l15,15l-2.4,2.4
		l-13.2-13.2c-0.1-0.1-0.2-0.2-0.4-0.2c-0.1,0-0.2,0-0.3,0l-19.6,6.4v1.2l6.3-2.1l-1.8,5.7c-0.1,0.2-0.1,0.5,0.1,0.7l3.3,3.3h-4.6
		c-0.2,0-0.4,0.1-0.5,0.3l-2.7,5.6v2.5l5.4,10.7c0,0.1,0.1,0.1,0.1,0.2c0.1,0.1,0.2,0.2,0.4,0.2h6.4l-3.4,3.4h-5.4l-3.5-7.6v2.7
		l2.7,5.7c0.1,0.1,0.1,0.2,0.2,0.2c0.1,0.1,0.2,0.1,0.3,0.1h4.6l-3.3,3.3c0,0,0,0,0,0c-0.2,0.1-0.2,0.4-0.1,0.6l1.9,5.8l-6.3-2.1
		v1.2l19.6,6.4c0.2,0,0.5,0,0.6-0.2l4.5-4.5v4.8l-3.8,3.8l-20.9-6.8v1.2l20.8,6.7c0.2,0.1,0.5,0.1,0.7-0.1l3.3-3.3v-0.1
		c0,0,0,0.1,0,0.1c0,0.2,0.1,0.4,0.3,0.4l11.2,5.8c0.3,0.2,0.7,0.2,1,0l5.6-2.9l5.6-2.9c0,0,0,0,0.1,0c0.2-0.1,0.3-0.3,0.3-0.5v0.1
		l3.2,3.2c0.1,0.1,0.1,0.1,0.2,0.1c0.1,0.1,0.3,0.1,0.4,0l20.7-6.8v-1.2l-20.8,6.8l-15-15l2.4-2.4l13.2,13.2
		c0.1,0.1,0.2,0.2,0.4,0.2c0.1,0,0.2,0,0.3,0l19.4-6.4v-1.2l-6.1,2l1.8-5.7c0.1-0.2,0.1-0.5-0.1-0.7l-3.3-3.3h4.2
		c0.2,0,0.4-0.1,0.5-0.3l2.9-5.7v-2.7l-5.3-10.4c-0.1-0.2-0.3-0.3-0.6-0.4h-6.4l3.4-3.4h5.5l3.4,7.3v-2.5l-2.5-5.6
		c-0.1-0.2-0.3-0.3-0.6-0.3h-4.7l3.2-3.2c0.2-0.1,0.3-0.4,0.2-0.6l-1.9-5.8l6.2,2v-1.2l-19.5-6.3c-0.1,0-0.3,0-0.4,0
		c-0.1,0-0.2,0.1-0.2,0.1l-4.5,4.5v-4.8L-9903.4-14482.2z M-9926.5-14477.6c-0.1,0.1-0.2,0.3-0.2,0.5v1.7l-3.4-3.4v-0.7l7.2-3.6
		l3.8-1.9l7.1,3.6l0,0l3.8,1.9v16.4l0,0l0,0h-3.4v-14c0-0.1,0-0.1,0-0.2c0-0.2-0.1-0.3-0.3-0.4l-6-3l-0.8-0.4
		c-0.3-0.1-0.6-0.1-0.8,0l-6.7,3.4C-9926.4-14477.6-9926.5-14477.6-9926.5-14477.6L-9926.5-14477.6z M-9925.6-14474.4v-2.4l6.4-3.3
		l6.4,3.3v2.3l-6.5,6.5L-9925.6-14474.4z M-9925.6-14466.4l2.4,2.4l-0.9,0.9h-1.4L-9925.6-14466.4z M-9925.6-14462h1.6
		c0.2,0,0.3,0,0.4-0.2l10.8-10.8v4.8l-9.5,9.5h-3.3L-9925.6-14462z M-9915.3-14464.1l2.4-2.4v3.5h-1.4L-9915.3-14464.1z
		 M-9930.2-14455.7c0-0.1,0.1-0.2,0.1-0.3v-15l3.4,3.4v13.2l-2.4,2.4l-2.4-2.4l1.2-1.2
		C-9930.3-14455.5-9930.3-14455.6-9930.2-14455.7L-9930.2-14455.7z M-9930.3-14446.7C-9930.4-14446.8-9930.4-14446.8-9930.3-14446.7
		l-10.8-10.8h4.8l9.5,9.5v3.2h-3.4v-1.6C-9930.2-14446.5-9930.2-14446.6-9930.3-14446.7L-9930.3-14446.7z M-9931.3-14446.1v1.4h-3.4
		l2.4-2.4L-9931.3-14446.1z M-9934.7-14457.5h3.5v1.4l-1,1L-9934.7-14457.5z M-9936.3-14477.1l5.1,5.1v8.9h-9l-5-5l2.2-6.8
		L-9936.3-14477.1z M-9950.4-14466.9l2-6.3l4-1.3l-2,6.3c0,0.1,0,0.2,0,0.3c0,0.1,0.1,0.2,0.2,0.3l4.4,4.4h-4.8L-9950.4-14466.9z
		 M-9955.5-14456.1l3-5.9h21.2v3.4h-18.7c-0.1,0-0.2,0-0.2,0.1c-0.1,0-0.3,0.1-0.3,0.3l-3,5.9L-9955.5-14456.1z M-9949.7-14444.8
		l-3.2-6.4l3.3-6.4h7l6.4,6.4l-6.3,6.3H-9949.7z M-9948.4-14429.1l-2-6.2l15-15l2.4,2.4l-13.2,13.2c-0.1,0.2-0.2,0.4-0.1,0.7l2,6.2
		L-9948.4-14429.1z M-9931.3-14430.2l-5,5l-6.8-2.2l-2.2-6.7l5-5h9L-9931.3-14430.2z M-9939.1-14440.3l3.4-3.4h13.3l2.4,2.4
		l-2.4,2.4l-1.2-1.2c0,0-0.1-0.1-0.1-0.1c-0.1-0.1-0.2-0.1-0.3-0.1L-9939.1-14440.3z M-9923.2-14438.1l-2.5,2.5v-3.6h1.4
		L-9923.2-14438.1z M-9911.9-14424.7c0.1-0.1,0.2-0.3,0.2-0.5v-1.7l3.4,3.4v0.7l-7.3,3.7l-3.7,1.9l-11-5.6v-16.4h3.4v14
		c0,0.2,0.1,0.4,0.3,0.6l6.7,3.4c0.3,0.2,0.7,0.2,1,0l6.7-3.4C-9912-14424.6-9911.9-14424.7-9911.9-14424.7L-9911.9-14424.7z
		 M-9912.8-14427.9v2.5l-6.4,3.3l-6.5-3.3v-2.2c0,0,0,0,0,0l6.6-6.6L-9912.8-14427.9z M-9912.8-14435.8l-2.4-2.4l0.9-0.9h1.4
		V-14435.8z M-9912.8-14440.3h-1.6c-0.2,0-0.3,0-0.4,0.2l-10.9,10.9v-4.8c0,0,0,0,0.1,0l9.6-9.6h3.3L-9912.8-14440.3z
		 M-9912.8-14448.2v3.5h-3.3c-0.2-0.1-0.4,0-0.6,0.1l-2.6,2.6l-2.6-2.6c0,0,0,0,0,0c-0.1-0.1-0.2-0.1-0.4-0.1h-3.5v-3.5
		c0-0.2-0.1-0.4-0.3-0.5l-2.4-2.4l2.5-2.5c0.2-0.1,0.3-0.3,0.3-0.5v-3.5h3.3c0.2,0.1,0.4,0,0.6-0.1l2.5-2.5l2.5,2.5
		c0.1,0.1,0.3,0.2,0.4,0.2h3.5v3.5c0,0.2,0.1,0.4,0.3,0.5l2.4,2.4l-2.4,2.4C-9912.7-14448.6-9912.8-14448.4-9912.8-14448.2
		L-9912.8-14448.2z M-9908.1-14455.5l10.7,10.7h-4.8l-9.5-9.5v-3.2h3.4v1.6C-9908.3-14455.7-9908.2-14455.6-9908.1-14455.5
		L-9908.1-14455.5z M-9907.2-14456.2v-1.3h3.4l-2.4,2.4L-9907.2-14456.2z M-9903.8-14444.7h-3.4v-1.4l1-1L-9903.8-14444.7z
		 M-9908.2-14446.3v15l-3.4-3.4v-13.2l2.3-2.3l2.4,2.4l-1.1,1.1C-9908.2-14446.7-9908.2-14446.5-9908.2-14446.3L-9908.2-14446.3z
		 M-9902.1-14425.2l-5.1-5.1v-8.9h9l5,5l-2.2,6.7L-9902.1-14425.2z M-9888-14435.4l-2,6.2l-4,1.3l2-6.2c0.1-0.2,0-0.5-0.2-0.6
		l-4.4-4.4h4.8L-9888-14435.4z M-9883.1-14446.5l-3.2,6.2h-20.8v-3.4h18.7c0.2,0,0.4-0.1,0.6-0.3l3-5.9L-9883.1-14446.5z
		 M-9888.7-14457.5l3.3,6.4l-3.2,6.4h-7.1l-6.4-6.4l6.3-6.3L-9888.7-14457.5z M-9890-14473.1l2,6.2l-15,15l-2.4-2.4l13.2-13.2
		c0.1-0.1,0.2-0.3,0.2-0.4c0-0.1,0-0.1,0-0.2l-2-6.2L-9890-14473.1z M-9907.2-14472l5.1-5.1l6.8,2.2l2.2,6.7l-5.1,5.1h-9
		L-9907.2-14472z M-9899.3-14462l-3.4,3.4h-13.4l-2.3-2.3l2.4-2.4l1.2,1.2c0.1,0.1,0.3,0.2,0.5,0.2H-9899.3z"/>
	<g transform="translate(-9895.42 -14486)">
		<path class="st0" d="M5,7.9l1.9,0.3l5.7-2.6c0.1,0,0.1,0,0.2,0V4.5c-0.2,0-0.4,0.1-0.7,0.1L5,7.9z"/>
		<path class="st0" d="M12.2,0.1L0,5.5L1.6,6l11-4.8c0.1,0,0.2,0,0.3,0V0C12.6,0,12.4,0,12.2,0.1L12.2,0.1z"/>
	</g>
	<g transform="translate(-9955.998 -14486)">
		<path class="st0" d="M7.8,7.9L5.9,8.2L0.2,5.6c-0.1,0-0.1,0-0.2,0V4.5c0.2,0,0.4,0.1,0.7,0.1L7.8,7.9z"/>
		<path class="st0" d="M0.7,0.1l12.2,5.3L11.3,6l-11-4.8c-0.1,0-0.2,0-0.3,0V0C0.2,0,0.5,0,0.7,0.1z"/>
	</g>
	<g transform="translate(-9955.998 -14424.384)">
		<path class="st0" d="M7.8,0.3L5.9,0L0.2,2.6c-0.1,0-0.1,0-0.2,0v1.1c0.2,0,0.4-0.1,0.7-0.1L7.8,0.3z"/>
		<path class="st0" d="M0.7,8.1l12.2-5.3l-1.6-0.5l-11,4.8c-0.1,0-0.2,0-0.3,0v1.1C0.2,8.2,0.5,8.2,0.7,8.1z"/>
	</g>
	<path class="st0" d="M-9890.4-14424.1l1.9-0.3l5.7,2.6c0.1,0,0.1,0,0.2,0v1.1c-0.2,0-0.4-0.1-0.7-0.1L-9890.4-14424.1z"/>
	<path class="st0" d="M-9883.3-14416.3l-12.2-5.3l1.6-0.5l11,4.8c0.1,0,0.2,0,0.3,0v1.1
		C-9882.8-14416.1-9883-14416.2-9883.3-14416.3z"/>
</g>
</svg>
